<svg id="svg" version="1.1" xmlns="http://www.w3.org/2000/svg" xmlns:xlink="http://www.w3.org/1999/xlink" width="400" height="400" viewBox="0, 0, 400,400"><g id="svgg"><path id="path0" d="M180.038 29.883 C 131.081 34.274,84.094 57.988,55.682 92.642 C 36.165 116.449,22.984 147.541,19.827 177.223 C 19.737 178.068,19.613 178.944,19.551 179.171 C 19.454 179.526,19.836 179.602,22.323 179.726 C 27.558 179.987,31.975 181.669,35.970 184.923 L 37.290 185.998 37.597 183.018 C 43.872 122.157,83.169 75.070,143.659 55.935 C 157.294 51.622,172.813 48.592,185.861 47.697 C 188.794 47.495,188.697 47.654,187.002 45.823 C 183.474 42.012,181.414 37.305,180.990 32.082 L 180.806 29.814 180.038 29.883 M227.136 32.182 C 226.522 37.948,224.420 42.592,220.648 46.509 C 219.166 48.048,219.138 47.992,221.497 48.232 C 222.482 48.332,225.328 48.748,227.822 49.157 C 295.920 60.309,349.286 114.860,356.410 180.600 C 356.651 182.825,356.882 184.691,356.924 184.748 C 356.965 184.805,357.663 184.388,358.474 183.821 C 362.530 180.987,366.144 179.852,371.246 179.811 L 374.865 179.782 374.765 179.015 C 374.709 178.592,374.487 176.865,374.271 175.176 C 365.132 103.873,307.471 45.088,233.449 31.609 C 226.901 30.417,227.327 30.378,227.136 32.182 M183.493 79.487 C 115.745 82.643,75.025 116.415,70.755 172.990 C 68.715 200.022,75.873 220.808,93.127 237.955 C 114.914 259.607,154.482 273.193,198.145 274.012 L 206.270 274.165 206.270 242.665 L 206.270 211.166 208.893 211.083 C 244.846 209.941,276.834 218.765,288.669 233.088 C 297.641 243.946,297.716 261.340,288.847 274.472 C 276.135 293.294,238.133 307.090,196.231 308.095 C 191.906 308.199,188.297 308.355,188.210 308.442 C 188.123 308.528,187.727 321.477,187.328 337.217 C 186.930 352.957,186.539 367.782,186.459 370.161 L 186.313 374.488 196.484 374.325 C 236.921 373.679,268.410 364.686,298.145 345.293 C 336.852 320.047,365.208 276.443,372.741 230.582 C 373.100 228.401,373.443 226.385,373.504 226.104 C 373.609 225.622,373.470 225.589,371.133 225.546 C 365.798 225.448,360.539 223.525,356.927 220.354 C 355.762 219.332,355.871 219.206,355.493 222.009 C 346.907 285.659,299.941 337.309,237.867 351.366 C 226.784 353.876,206.441 356.602,205.416 355.714 C 205.215 355.539,205.848 326.377,206.058 326.166 C 206.112 326.112,207.996 325.886,210.244 325.665 C 276.033 319.194,313.680 292.674,313.618 252.847 C 313.575 225.301,295.267 206.547,259.885 197.804 C 241.453 193.249,215.196 191.608,192.706 193.605 C 190.384 193.811,188.340 193.981,188.164 193.983 C 187.910 193.985,187.844 200.266,187.844 224.525 C 187.844 241.322,187.789 255.120,187.721 255.188 C 187.524 255.385,180.996 254.693,175.245 253.866 C 127.327 246.974,97.055 226.852,90.494 197.530 C 86.565 179.972,89.618 157.276,98.063 141.267 C 111.872 115.085,142.922 99.197,182.917 97.846 L 187.844 97.680 187.844 121.140 L 187.844 144.600 196.993 144.533 L 206.142 144.466 206.207 112.412 C 206.259 86.854,206.207 80.358,205.951 80.355 C 205.775 80.353,203.730 80.182,201.408 79.974 C 197.168 79.594,187.078 79.320,183.493 79.487 M36.701 219.859 C 34.166 222.660,27.814 225.205,22.329 225.616 C 20.875 225.725,19.962 225.903,19.962 226.076 C 19.965 227.038,21.504 235.101,22.557 239.667 C 35.398 295.385,77.283 344.774,129.495 365.763 C 142.213 370.876,158.827 374.355,170.761 374.404 L 171.721 374.408 171.721 348.811 L 171.721 323.214 166.795 323.283 L 161.868 323.353 161.802 339.423 L 161.736 355.493 160.907 355.355 C 160.450 355.279,158.983 355.039,157.646 354.821 C 148.041 353.257,135.405 348.964,125.272 343.822 C 79.231 320.461,44.918 272.797,37.992 222.585 C 37.515 219.126,37.463 219.017,36.701 219.859 " stroke="none" fill="#347c2c" fill-rule="evenodd"></path><path id="path1" d="M200.512 13.411 C 184.373 17.108,181.653 38.719,196.417 45.947 C 210.360 52.773,225.504 39.496,220.584 24.759 C 217.928 16.804,208.635 11.549,200.512 13.411 M17.914 185.648 C 5.872 188.174,0.018 201.865,6.650 211.991 C 15.020 224.770,34.810 221.426,38.275 206.647 C 41.113 194.541,30.026 183.107,17.914 185.648 M368.266 185.678 C 354.546 188.583,349.585 204.971,359.432 214.865 C 369.969 225.453,387.901 218.687,389.157 203.649 C 390.066 192.761,379.153 183.372,368.266 185.678 " stroke="none" fill="#c7c230" fill-rule="evenodd"></path><path id="path2" d="M191.683 8.353 C 92.564 11.007,11.508 82.672,0.395 177.479 C -0.173 182.319,-0.174 214.845,0.393 219.706 C 13.086 328.542,117.919 404.609,229.814 386.174 C 344.156 367.335,416.887 257.930,387.160 149.487 C 363.951 64.820,282.378 5.925,191.683 8.353 M207.847 13.422 C 220.942 16.198,226.058 32.366,216.936 42.152 C 206.074 53.805,186.712 46.307,186.732 30.454 C 186.746 19.172,196.782 11.077,207.847 13.422 M181.267 31.926 C 181.617 37.075,183.663 41.952,186.986 45.562 L 188.976 47.723 185.019 48.046 C 103.748 54.686,45.683 108.052,37.853 183.301 C 37.520 186.493,37.463 186.615,36.700 185.766 C 33.969 182.729,27.853 180.245,22.457 179.982 L 19.450 179.835 19.451 179.169 C 19.451 178.803,19.798 176.109,20.221 173.184 C 30.158 104.494,79.553 52.092,150.752 34.708 C 159.269 32.628,175.299 29.924,180.320 29.719 L 181.114 29.687 181.267 31.926 M232.123 31.209 C 296.352 42.043,350.099 88.342,368.650 148.816 C 371.698 158.752,374.479 171.958,374.970 178.826 L 375.048 179.917 371.337 180.010 C 366.031 180.143,362.684 181.158,358.699 183.842 C 357.731 184.495,356.911 185.029,356.877 185.029 C 356.844 185.029,356.678 183.733,356.509 182.150 C 349.244 114.008,293.555 57.973,224.056 48.876 C 218.034 48.088,218.450 48.397,220.523 46.245 C 224.510 42.106,226.999 36.460,226.999 31.559 C 226.999 30.235,226.536 30.267,232.123 31.209 M201.663 79.715 C 203.845 79.924,205.832 80.097,206.079 80.099 C 206.505 80.102,206.525 81.761,206.463 112.412 L 206.398 144.722 197.057 144.722 L 187.716 144.722 187.651 121.205 L 187.585 97.689 183.940 97.861 C 130.903 100.368,98.262 123.429,90.623 163.788 C 82.252 208.018,103.875 236.620,155.726 249.901 C 164.750 252.212,182.179 255.123,187.140 255.148 C 187.564 255.150,187.588 253.518,187.588 224.440 C 187.588 195.363,187.612 193.730,188.036 193.729 C 188.282 193.728,190.320 193.559,192.564 193.352 C 211.939 191.570,234.862 192.605,252.591 196.063 C 291.334 203.619,311.968 221.640,313.750 249.477 C 316.406 290.956,277.348 319.649,209.853 325.801 C 207.953 325.974,206.364 326.142,206.323 326.174 C 206.251 326.230,205.518 351.598,205.507 354.402 L 205.502 355.765 207.869 355.599 C 285.600 350.163,342.571 299.325,354.995 224.312 C 355.438 221.638,355.831 219.413,355.867 219.367 C 355.904 219.322,356.656 219.867,357.538 220.578 C 361.409 223.697,366.496 225.464,371.605 225.464 L 373.825 225.464 373.481 227.618 C 363.191 291.873,318.800 344.871,258.708 364.645 C 237.399 371.656,217.893 374.648,193.410 374.661 L 186.308 374.664 186.309 372.681 C 186.309 371.590,186.425 366.552,186.567 361.484 C 187.024 345.130,187.843 312.151,187.844 310.109 L 187.844 308.125 191.363 308.124 C 225.443 308.111,262.260 298.049,279.591 284.010 C 299.351 268.004,300.617 241.088,282.260 227.292 C 268.651 217.065,243.020 211.141,212.349 211.134 L 206.528 211.132 206.463 242.674 L 206.398 274.216 198.337 274.186 C 173.160 274.090,144.182 268.013,123.285 258.447 C 84.149 240.532,66.173 209.905,70.882 169.162 C 77.198 114.515,116.549 82.873,182.726 79.230 C 186.091 79.045,197.813 79.345,201.663 79.715 M179.399 108.491 L 179.399 112.311 178.055 112.450 C 177.316 112.527,175.675 112.659,174.408 112.743 C 153.911 114.109,133.114 122.628,122.198 134.131 C 107.766 149.338,101.696 165.589,103.762 183.493 C 106.205 204.672,115.017 216.035,137.521 227.027 C 145.317 230.835,167.814 236.765,176.915 237.411 C 178.203 237.502,179.226 237.693,179.274 237.852 C 179.321 238.006,179.434 239.773,179.525 241.779 L 179.690 245.425 178.201 245.424 C 168.687 245.415,142.124 238.226,131.414 232.761 C 109.218 221.435,99.091 208.080,96.092 186.180 C 93.206 165.104,100.089 145.790,116.552 128.772 C 128.893 116.014,148.778 107.378,170.825 105.201 C 172.374 105.049,173.986 104.884,174.408 104.835 C 174.830 104.787,176.126 104.730,177.287 104.709 L 179.399 104.671 179.399 108.491 M26.743 186.166 C 38.882 190.243,42.781 205.097,34.158 214.410 C 23.332 226.103,3.877 218.483,3.843 202.536 C 3.818 190.937,15.687 182.453,26.743 186.166 M377.095 186.149 C 391.904 190.912,393.416 211.447,379.458 218.252 C 364.252 225.666,348.382 209.366,356.287 194.452 C 360.157 187.151,369.108 183.579,377.095 186.149 M226.488 218.962 C 267.240 222.102,289.096 235.526,286.029 255.534 C 282.842 276.329,259.160 292.132,223.928 296.972 C 214.731 298.236,192.877 299.269,190.098 298.571 L 189.503 298.422 189.794 294.380 C 189.954 292.158,190.099 290.310,190.116 290.275 C 190.133 290.240,193.642 290.211,197.913 290.211 C 236.530 290.211,264.936 279.906,274.939 262.269 C 285.730 243.241,266.570 230.277,222.969 227.106 L 220.601 226.933 220.601 231.276 C 220.601 233.664,220.526 238.055,220.433 241.034 L 220.264 246.449 216.061 246.449 L 211.858 246.449 212.013 235.509 C 212.098 229.491,212.235 223.143,212.318 221.400 L 212.467 218.232 216.982 218.405 C 219.465 218.500,223.743 218.751,226.488 218.962 M38.110 221.433 C 44.882 278.049,88.890 332.522,142.669 350.853 C 148.302 352.773,158.708 355.214,161.260 355.214 C 161.724 355.214,161.740 354.684,161.740 339.091 L 161.740 322.969 166.688 322.969 L 171.637 322.969 171.808 348.009 C 172.005 376.682,172.116 374.664,170.345 374.663 C 162.796 374.657,151.120 372.811,142.065 370.192 C 82.378 352.927,30.925 293.999,20.613 231.094 C 20.255 228.912,19.899 226.753,19.822 226.296 L 19.683 225.464 21.752 225.464 C 26.849 225.464,33.844 222.687,36.833 219.476 C 37.734 218.508,37.767 218.558,38.110 221.433 " stroke="none" fill="#fbfbfb" fill-rule="evenodd"></path><path id="path3" d="M191.539 18.234 L 190.787 19.066 191.619 18.314 C 192.076 17.901,192.450 17.527,192.450 17.483 C 192.450 17.285,192.239 17.459,191.539 18.234 M181.007 30.838 C 181.009 31.542,181.059 31.799,181.118 31.410 C 181.177 31.021,181.175 30.446,181.114 30.131 C 181.054 29.816,181.005 30.134,181.007 30.838 M187.321 46.129 C 188.382 47.259,188.612 47.462,188.612 47.270 C 188.612 47.229,188.065 46.682,187.396 46.055 L 186.180 44.914 187.321 46.129 M220.081 46.769 L 218.682 48.241 220.154 46.842 C 220.963 46.072,221.625 45.410,221.625 45.370 C 221.625 45.180,221.380 45.402,220.081 46.769 M110.493 49.281 C 109.824 49.629,109.277 49.971,109.277 50.041 C 109.277 50.155,111.811 48.959,112.071 48.722 C 112.388 48.433,111.555 48.728,110.493 49.281 M121.049 64.875 C 120.697 65.076,120.525 65.241,120.665 65.241 C 120.806 65.241,121.209 65.076,121.561 64.875 C 121.913 64.674,122.086 64.509,121.945 64.509 C 121.804 64.509,121.401 64.674,121.049 64.875 M71.513 75.816 L 70.761 76.647 71.593 75.896 C 72.051 75.482,72.425 75.108,72.425 75.064 C 72.425 74.866,72.214 75.040,71.513 75.816 M323.608 77.031 C 324.302 77.735,324.926 78.311,324.997 78.311 C 325.067 78.311,324.558 77.735,323.864 77.031 C 323.171 76.328,322.546 75.752,322.476 75.752 C 322.406 75.752,322.915 76.328,323.608 77.031 M66.151 80.934 L 62.572 84.581 66.219 81.002 C 69.607 77.676,69.982 77.287,69.798 77.287 C 69.761 77.287,68.120 78.928,66.151 80.934 M185.349 79.267 C 186.017 79.320,187.111 79.320,187.780 79.267 C 188.448 79.214,187.901 79.171,186.564 79.171 C 185.227 79.171,184.680 79.214,185.349 79.267 M190.731 79.267 C 191.404 79.320,192.440 79.319,193.034 79.266 C 193.628 79.212,193.077 79.169,191.811 79.170 C 190.544 79.170,190.058 79.214,190.731 79.267 M178.951 79.511 C 179.197 79.575,179.600 79.575,179.846 79.511 C 180.093 79.447,179.891 79.394,179.399 79.394 C 178.906 79.394,178.704 79.447,178.951 79.511 M206.333 112.284 L 206.270 144.594 197.058 144.594 L 187.847 144.594 187.779 121.113 L 187.712 97.633 187.714 121.177 L 187.716 144.722 197.000 144.789 C 204.290 144.842,206.310 144.787,206.407 144.533 C 206.474 144.355,206.500 129.757,206.463 112.092 L 206.396 79.974 206.333 112.284 M330.134 83.557 C 330.612 84.050,331.060 84.453,331.130 84.453 C 331.201 84.453,330.868 84.050,330.390 83.557 C 329.913 83.065,329.465 82.662,329.394 82.662 C 329.324 82.662,329.657 83.065,330.134 83.557 M310.940 90.723 C 311.705 91.497,312.388 92.131,312.459 92.131 C 312.529 92.131,311.961 91.497,311.196 90.723 C 310.432 89.949,309.749 89.315,309.678 89.315 C 309.608 89.315,310.176 89.949,310.940 90.723 M78.819 94.626 L 75.112 98.401 78.887 94.693 C 82.393 91.249,82.777 90.851,82.594 90.851 C 82.557 90.851,80.859 92.550,78.819 94.626 M316.699 96.481 C 317.534 97.326,318.276 98.017,318.346 98.017 C 318.416 98.017,317.790 97.326,316.955 96.481 C 316.119 95.637,315.378 94.946,315.307 94.946 C 315.237 94.946,315.863 95.637,316.699 96.481 M182.278 97.937 C 182.524 98.001,182.927 98.001,183.173 97.937 C 183.420 97.873,183.218 97.820,182.726 97.820 C 182.233 97.820,182.031 97.873,182.278 97.937 M177.025 104.861 L 179.129 104.947 179.207 108.711 L 179.285 112.476 179.342 108.573 L 179.399 104.671 177.159 104.723 L 174.920 104.775 177.025 104.861 M172.685 105.112 C 173.145 105.169,173.836 105.168,174.221 105.109 C 174.605 105.051,174.229 105.004,173.385 105.006 C 172.540 105.007,172.225 105.055,172.685 105.112 M170.122 105.363 C 170.438 105.424,170.956 105.424,171.273 105.363 C 171.590 105.302,171.331 105.252,170.697 105.252 C 170.064 105.252,169.805 105.302,170.122 105.363 M168.077 105.619 C 168.396 105.680,168.856 105.678,169.101 105.614 C 169.346 105.550,169.085 105.500,168.522 105.503 C 167.959 105.506,167.759 105.558,168.077 105.619 M165.067 105.950 C 164.388 106.093,164.326 106.143,164.811 106.158 C 165.163 106.168,165.912 106.081,166.475 105.965 C 167.328 105.788,167.371 105.754,166.731 105.757 C 166.308 105.760,165.560 105.846,165.067 105.950 M162.124 106.462 C 161.439 106.636,161.425 106.657,161.996 106.657 C 162.348 106.657,162.981 106.569,163.404 106.462 C 164.089 106.288,164.102 106.267,163.532 106.267 C 163.180 106.267,162.546 106.354,162.124 106.462 M157.774 107.354 C 156.507 107.676,155.643 107.946,155.854 107.956 C 156.065 107.965,157.390 107.700,158.797 107.367 C 160.205 107.034,161.068 106.763,160.717 106.765 C 160.365 106.768,159.040 107.033,157.774 107.354 M152.655 108.647 C 151.646 108.996,151.644 108.999,152.527 108.850 C 153.571 108.674,154.638 108.284,154.063 108.289 C 153.852 108.291,153.218 108.452,152.655 108.647 M98.528 110.173 C 97.907 110.806,97.456 111.324,97.526 111.324 C 97.597 111.324,98.163 110.806,98.784 110.173 C 99.406 109.539,99.857 109.021,99.787 109.021 C 99.716 109.021,99.150 109.539,98.528 110.173 M150.352 109.277 C 150.029 109.416,149.982 109.497,150.224 109.497 C 150.435 109.497,150.838 109.398,151.120 109.277 C 151.442 109.138,151.490 109.057,151.248 109.057 C 151.036 109.057,150.633 109.156,150.352 109.277 M147.409 110.173 C 146.916 110.362,146.686 110.518,146.897 110.518 C 147.108 110.518,147.684 110.362,148.177 110.173 C 148.669 109.983,148.900 109.828,148.688 109.828 C 148.477 109.828,147.901 109.983,147.409 110.173 M95.576 113.180 L 94.306 114.523 95.649 113.253 C 96.388 112.555,96.993 111.950,96.993 111.910 C 96.993 111.719,96.756 111.931,95.576 113.180 M176.778 112.529 C 177.097 112.590,177.557 112.588,177.802 112.524 C 178.047 112.460,177.786 112.410,177.223 112.413 C 176.660 112.415,176.460 112.468,176.778 112.529 M149.248 117.641 C 147.797 118.137,146.653 118.588,146.707 118.641 C 146.761 118.695,148.121 118.289,149.730 117.739 C 151.339 117.188,152.482 116.738,152.271 116.738 C 152.060 116.739,150.700 117.145,149.248 117.641 M143.186 119.973 C 141.638 120.646,140.141 121.345,139.859 121.526 C 139.141 121.989,139.719 121.771,142.802 120.419 C 146.598 118.754,146.540 118.782,146.257 118.765 C 146.116 118.757,144.734 119.301,143.186 119.973 M124.824 121.442 C 124.155 121.932,123.608 122.390,123.608 122.459 C 123.608 122.528,124.184 122.170,124.888 121.665 C 125.982 120.879,126.374 120.517,126.104 120.544 C 126.068 120.547,125.493 120.951,124.824 121.442 M110.423 124.696 L 108.125 127.063 110.493 124.765 C 112.691 122.631,112.976 122.329,112.791 122.329 C 112.752 122.329,111.687 123.394,110.423 124.696 M136.084 123.370 C 135.557 123.649,135.125 123.934,135.125 124.004 C 135.125 124.074,135.585 123.896,136.148 123.608 C 136.711 123.321,137.172 123.031,137.172 122.963 C 137.172 122.796,137.170 122.797,136.084 123.370 M119.500 125.848 L 118.618 126.807 119.578 125.925 C 120.106 125.440,120.537 125.009,120.537 124.966 C 120.537 124.770,120.321 124.954,119.500 125.848 M115.019 130.326 L 114.267 131.158 115.099 130.406 C 115.557 129.993,115.931 129.619,115.931 129.575 C 115.931 129.377,115.720 129.551,115.019 130.326 M125.768 130.582 L 125.016 131.414 125.848 130.662 C 126.623 129.962,126.797 129.750,126.599 129.750 C 126.555 129.750,126.181 130.125,125.768 130.582 M122.707 133.397 L 120.665 135.509 122.777 133.467 C 123.938 132.345,124.888 131.394,124.888 131.356 C 124.888 131.169,124.603 131.436,122.707 133.397 M113.351 132.246 C 111.842 133.937,111.500 134.357,111.633 134.357 C 111.710 134.357,112.315 133.724,112.977 132.949 C 114.201 131.516,114.495 130.965,113.351 132.246 M110.019 136.340 C 108.212 138.654,108.173 138.708,108.309 138.708 C 108.373 138.708,109.141 137.786,110.013 136.660 C 110.886 135.534,111.548 134.613,111.484 134.613 C 111.421 134.613,110.761 135.390,110.019 136.340 M119.882 136.468 L 119.130 137.300 119.962 136.548 C 120.737 135.848,120.911 135.637,120.713 135.637 C 120.669 135.637,120.295 136.011,119.882 136.468 M110.821 148.827 C 108.782 152.278,105.979 158.272,106.268 158.561 C 106.320 158.613,106.853 157.463,107.452 156.006 C 108.416 153.658,110.737 149.190,111.968 147.311 C 112.209 146.943,112.341 146.641,112.259 146.641 C 112.178 146.641,111.531 147.625,110.821 148.827 M97.294 161.291 C 96.988 162.513,96.747 163.661,96.760 163.842 C 96.773 164.023,97.058 163.135,97.393 161.868 C 97.729 160.601,97.969 159.453,97.927 159.317 C 97.886 159.181,97.601 160.069,97.294 161.291 M96.065 167.168 C 95.514 170.488,95.412 181.890,95.910 184.645 C 96.164 186.051,96.172 185.975,96.014 183.749 C 95.671 178.927,95.832 170.244,96.319 167.283 C 96.570 165.757,96.724 164.457,96.661 164.394 C 96.597 164.330,96.329 165.579,96.065 167.168 M103.221 176.328 C 103.221 177.383,103.266 177.815,103.321 177.287 C 103.377 176.759,103.377 175.896,103.321 175.368 C 103.266 174.840,103.221 175.272,103.221 176.328 M70.181 177.607 C 70.181 178.100,70.234 178.301,70.298 178.055 C 70.362 177.809,70.362 177.406,70.298 177.159 C 70.234 176.913,70.181 177.115,70.181 177.607 M20.416 179.842 C 21.018 179.896,21.939 179.896,22.464 179.841 C 22.988 179.786,22.495 179.741,21.369 179.742 C 20.243 179.743,19.814 179.788,20.416 179.842 M370.768 179.842 C 371.370 179.896,372.291 179.896,372.815 179.841 C 373.340 179.786,372.847 179.741,371.721 179.742 C 370.595 179.743,370.166 179.788,370.768 179.842 M70.181 186.308 C 70.181 186.801,70.234 187.003,70.298 186.756 C 70.362 186.510,70.362 186.107,70.298 185.861 C 70.234 185.614,70.181 185.816,70.181 186.308 M96.246 186.856 C 96.209 188.072,97.936 196.455,98.174 196.217 C 98.233 196.158,98.049 195.133,97.765 193.938 C 97.482 192.744,97.028 190.510,96.758 188.974 C 96.488 187.437,96.257 186.484,96.246 186.856 M359.295 190.339 L 358.413 191.299 359.373 190.417 C 360.266 189.596,360.450 189.379,360.255 189.379 C 360.212 189.379,359.780 189.811,359.295 190.339 M206.078 192.637 C 206.606 192.692,207.470 192.692,207.997 192.637 C 208.525 192.582,208.093 192.536,207.038 192.536 C 205.982 192.536,205.550 192.582,206.078 192.637 M216.194 192.638 C 216.796 192.692,217.717 192.691,218.241 192.636 C 218.765 192.581,218.273 192.537,217.147 192.538 C 216.020 192.539,215.592 192.584,216.194 192.638 M224.248 192.883 C 224.495 192.947,224.898 192.947,225.144 192.883 C 225.390 192.818,225.189 192.766,224.696 192.766 C 224.203 192.766,224.002 192.818,224.248 192.883 M187.712 224.440 C 187.712 241.401,187.742 248.340,187.780 239.859 C 187.817 231.379,187.817 217.502,187.780 209.021 C 187.742 200.541,187.712 207.479,187.712 224.440 M105.713 194.625 C 105.685 195.000,107.009 198.898,107.126 198.782 C 107.180 198.727,106.889 197.712,106.479 196.526 C 106.068 195.340,105.724 194.485,105.713 194.625 M98.309 196.801 C 98.309 197.012,98.408 197.415,98.528 197.697 C 98.667 198.019,98.748 198.067,98.748 197.825 C 98.748 197.614,98.649 197.210,98.528 196.929 C 98.390 196.606,98.309 196.559,98.309 196.801 M107.230 199.224 C 107.230 199.532,109.481 204.223,109.628 204.223 C 109.740 204.223,107.559 199.405,107.321 199.126 C 107.271 199.067,107.230 199.111,107.230 199.224 M38.730 202.687 C 38.730 203.743,38.775 204.175,38.830 203.647 C 38.885 203.119,38.885 202.255,38.830 201.727 C 38.775 201.200,38.730 201.631,38.730 202.687 M114.139 210.701 C 114.139 210.745,114.514 211.119,114.971 211.532 L 115.803 212.284 115.051 211.452 C 114.351 210.677,114.139 210.503,114.139 210.701 M206.394 242.610 C 206.394 259.994,206.425 267.105,206.462 258.413 C 206.499 249.722,206.499 235.499,206.462 226.807 C 206.425 218.116,206.394 225.227,206.394 242.610 M220.409 211.309 C 220.656 211.373,221.059 211.373,221.305 211.309 C 221.552 211.244,221.350 211.192,220.857 211.192 C 220.365 211.192,220.163 211.244,220.409 211.309 M118.362 214.971 C 118.912 215.534,119.419 215.995,119.490 215.995 C 119.560 215.995,119.168 215.534,118.618 214.971 C 118.068 214.408,117.561 213.948,117.490 213.948 C 117.420 213.948,117.812 214.408,118.362 214.971 M8.189 214.284 C 8.189 214.328,8.564 214.702,9.021 215.115 L 9.853 215.867 9.101 215.035 C 8.401 214.260,8.189 214.086,8.189 214.284 M108.955 216.379 C 109.673 217.223,110.929 218.548,111.747 219.322 C 112.711 220.234,112.475 219.919,111.078 218.426 C 108.014 215.153,107.459 214.618,108.955 216.379 M299.680 217.914 C 300.870 219.111,301.902 220.090,301.972 220.090 C 302.042 220.090,301.126 219.111,299.936 217.914 C 298.746 216.718,297.714 215.739,297.644 215.739 C 297.574 215.739,298.490 216.718,299.680 217.914 M119.849 216.172 C 120.064 216.520,122.073 218.141,122.073 217.967 C 122.073 217.901,121.531 217.404,120.869 216.862 C 120.207 216.319,119.748 216.009,119.849 216.172 M77.799 217.112 C 77.799 217.390,79.071 219.834,79.215 219.834 C 79.286 219.834,79.040 219.229,78.668 218.490 C 77.954 217.069,77.799 216.823,77.799 217.112 M122.427 218.249 C 122.509 218.383,123.587 219.179,124.820 220.016 C 127.209 221.639,128.005 222.127,127.575 221.705 C 127.107 221.246,122.273 218.001,122.427 218.249 M213.636 218.487 C 214.380 218.539,215.532 218.538,216.195 218.486 C 216.859 218.433,216.251 218.391,214.843 218.392 C 213.436 218.392,212.893 218.435,213.636 218.487 M219.002 218.743 C 219.741 218.794,220.950 218.794,221.689 218.743 C 222.428 218.691,221.823 218.649,220.345 218.649 C 218.868 218.649,218.263 218.691,219.002 218.743 M223.859 218.995 C 224.313 219.051,225.119 219.052,225.650 218.997 C 226.181 218.941,225.809 218.895,224.824 218.894 C 223.839 218.893,223.404 218.938,223.859 218.995 M227.511 219.240 C 233.712 219.874,238.597 220.475,241.928 221.013 C 244.157 221.373,246.032 221.616,246.095 221.553 C 246.429 221.219,229.832 219.019,227.639 219.107 C 226.623 219.148,226.622 219.149,227.511 219.240 M22.585 220.010 C 22.831 220.074,23.234 220.074,23.480 220.010 C 23.727 219.946,23.525 219.893,23.033 219.893 C 22.540 219.893,22.338 219.946,22.585 220.010 M372.937 220.010 C 373.183 220.074,373.586 220.074,373.832 220.010 C 374.079 219.946,373.877 219.893,373.385 219.893 C 372.892 219.893,372.690 219.946,372.937 220.010 M212.265 226.743 C 212.265 229.770,212.302 231.008,212.347 229.495 C 212.392 227.981,212.392 225.505,212.347 223.992 C 212.302 222.479,212.265 223.717,212.265 226.743 M273.065 221.881 C 273.557 222.151,274.075 222.371,274.216 222.371 C 274.357 222.371,274.069 222.151,273.576 221.881 C 273.084 221.611,272.566 221.391,272.425 221.391 C 272.284 221.391,272.572 221.611,273.065 221.881 M249.520 222.393 C 249.872 222.506,250.390 222.598,250.672 222.598 C 251.077 222.598,251.050 222.555,250.544 222.393 C 250.192 222.280,249.674 222.188,249.392 222.188 C 248.987 222.188,249.014 222.231,249.520 222.393 M129.239 222.764 C 129.239 222.834,129.584 223.070,130.006 223.289 C 130.429 223.507,130.774 223.628,130.774 223.558 C 130.774 223.487,130.429 223.251,130.006 223.033 C 129.584 222.814,129.239 222.693,129.239 222.764 M105.822 224.696 C 106.800 225.681,107.657 226.488,107.728 226.488 C 107.798 226.488,107.056 225.681,106.078 224.696 C 105.100 223.711,104.243 222.905,104.172 222.905 C 104.102 222.905,104.844 223.711,105.822 224.696 M131.542 224.043 C 131.542 224.114,131.887 224.350,132.310 224.568 C 132.732 224.786,133.077 224.908,133.077 224.837 C 133.077 224.767,132.732 224.531,132.310 224.312 C 131.887 224.094,131.542 223.973,131.542 224.043 M220.456 233.141 C 220.456 236.590,220.492 238.001,220.537 236.276 C 220.581 234.552,220.581 231.731,220.537 230.006 C 220.492 228.282,220.456 229.693,220.456 233.141 M125.528 229.494 C 126.030 230.020,134.333 234.428,134.799 234.416 C 134.908 234.413,133.449 233.603,131.557 232.615 C 129.665 231.628,127.477 230.461,126.695 230.023 C 125.912 229.584,125.387 229.346,125.528 229.494 M250.650 231.092 C 252.186 231.516,253.487 231.819,253.541 231.766 C 253.659 231.647,250.000 230.647,248.752 230.457 C 248.260 230.382,249.114 230.667,250.650 231.092 M287.140 231.734 C 287.618 232.226,288.066 232.630,288.136 232.630 C 288.207 232.630,287.874 232.226,287.396 231.734 C 286.919 231.241,286.470 230.838,286.400 230.838 C 286.330 230.838,286.663 231.241,287.140 231.734 M273.832 231.699 C 273.832 231.769,274.178 232.073,274.600 232.374 C 275.022 232.674,275.368 232.863,275.368 232.792 C 275.368 232.722,275.022 232.418,274.600 232.118 C 274.178 231.817,273.832 231.629,273.832 231.699 M150.757 231.966 C 150.949 232.153,155.896 233.441,156.005 233.332 C 156.063 233.273,154.967 232.919,153.568 232.544 C 151.045 231.867,150.552 231.766,150.757 231.966 M254.255 232.118 C 254.536 232.239,254.939 232.338,255.150 232.338 C 255.392 232.338,255.345 232.256,255.022 232.118 C 254.741 231.997,254.338 231.898,254.127 231.898 C 253.885 231.898,253.932 231.979,254.255 232.118 M258.221 233.365 C 259.699 233.896,261.473 234.582,262.164 234.891 C 262.854 235.199,263.465 235.405,263.520 235.349 C 263.737 235.133,256.503 232.354,255.809 232.387 C 255.658 232.394,256.743 232.834,258.221 233.365 M276.008 233.307 C 276.289 233.586,277.383 234.538,278.439 235.423 C 280.081 236.799,280.155 236.839,278.951 235.704 C 277.567 234.400,275.007 232.314,276.008 233.307 M157.371 233.803 C 157.995 233.999,158.916 234.217,159.419 234.287 C 159.921 234.357,159.527 234.189,158.541 233.912 C 156.512 233.342,155.645 233.262,157.371 233.803 M135.893 234.933 C 136.385 235.203,136.903 235.423,137.044 235.423 C 137.185 235.423,136.897 235.203,136.404 234.933 C 135.912 234.663,135.393 234.442,135.253 234.442 C 135.112 234.442,135.400 234.663,135.893 234.933 M162.124 234.944 C 163.109 235.206,164.376 235.480,164.939 235.553 C 165.502 235.625,164.869 235.406,163.532 235.064 C 162.194 234.723,160.928 234.449,160.717 234.456 C 160.505 234.462,161.139 234.682,162.124 234.944 M92.386 237.620 C 93.577 238.816,94.608 239.795,94.678 239.795 C 94.749 239.795,93.833 238.816,92.642 237.620 C 91.452 236.424,90.421 235.445,90.350 235.445 C 90.280 235.445,91.196 236.424,92.386 237.620 M167.242 236.090 C 167.946 236.271,168.810 236.418,169.162 236.418 C 169.514 236.417,169.111 236.260,168.266 236.069 C 166.331 235.633,165.527 235.649,167.242 236.090 M211.958 241.651 L 211.900 246.449 216.123 246.449 L 220.345 246.449 220.290 242.930 L 220.234 239.411 220.154 242.802 L 220.075 246.193 216.121 246.193 L 212.168 246.193 212.092 241.523 L 212.016 236.852 211.958 241.651 M174.856 237.412 C 175.102 237.477,175.505 237.477,175.752 237.412 C 175.998 237.348,175.797 237.295,175.304 237.295 C 174.811 237.295,174.610 237.348,174.856 237.412 M177.789 237.673 L 179.122 237.774 179.214 239.872 L 179.306 241.971 179.288 239.795 L 179.271 237.620 177.863 237.596 L 176.456 237.571 177.789 237.673 M273.448 242.099 C 273.998 242.662,274.506 243.122,274.576 243.122 C 274.646 243.122,274.254 242.662,273.704 242.099 C 273.155 241.536,272.647 241.075,272.577 241.075 C 272.506 241.075,272.899 241.536,273.448 242.099 M179.399 243.750 L 179.399 245.146 177.671 245.236 L 175.944 245.325 177.799 245.375 L 179.655 245.425 179.655 243.890 C 179.655 243.045,179.597 242.354,179.527 242.354 C 179.456 242.354,179.399 242.983,179.399 243.750 M172.553 244.834 C 172.799 244.898,173.202 244.898,173.448 244.834 C 173.695 244.770,173.493 244.717,173.001 244.717 C 172.508 244.717,172.306 244.770,172.553 244.834 M174.475 245.095 C 174.793 245.156,175.254 245.154,175.499 245.089 C 175.744 245.025,175.483 244.975,174.920 244.978 C 174.357 244.981,174.157 245.033,174.475 245.095 M276.836 246.964 C 277.058 247.528,277.285 247.944,277.342 247.887 C 277.465 247.764,276.726 245.937,276.553 245.937 C 276.487 245.937,276.614 246.399,276.836 246.964 M277.590 249.264 C 277.674 249.898,277.784 250.464,277.835 250.522 C 278.027 250.745,277.881 249.113,277.664 248.624 C 277.513 248.283,277.488 248.495,277.590 249.264 M286.204 251.951 C 286.205 253.077,286.250 253.506,286.304 252.904 C 286.358 252.302,286.357 251.381,286.302 250.857 C 286.247 250.333,286.203 250.825,286.204 251.951 M278.000 251.951 C 278.002 252.655,278.052 252.913,278.111 252.524 C 278.170 252.135,278.168 251.559,278.107 251.244 C 278.046 250.929,277.998 251.248,278.000 251.951 M295.155 252.847 C 295.155 253.762,295.202 254.136,295.259 253.679 C 295.315 253.221,295.315 252.473,295.259 252.015 C 295.202 251.558,295.155 251.932,295.155 252.847 M313.832 253.103 C 313.832 253.877,313.880 254.194,313.939 253.807 C 313.998 253.420,313.998 252.786,313.939 252.399 C 313.880 252.012,313.832 252.329,313.832 253.103 M277.706 254.022 C 277.676 254.695,277.066 257.358,276.538 259.117 C 276.453 259.399,276.552 259.283,276.758 258.861 C 277.286 257.779,277.991 254.543,277.855 253.829 C 277.763 253.346,277.734 253.383,277.706 254.022 M266.027 272.344 C 265.042 273.194,262.897 274.769,261.261 275.844 C 257.289 278.455,257.117 278.580,258.605 277.772 C 261.138 276.396,266.371 272.608,267.538 271.305 C 268.319 270.434,267.940 270.694,266.027 272.344 M275.768 274.551 C 273.138 277.334,272.944 277.581,274.827 275.752 C 276.888 273.748,279.426 270.988,279.167 271.032 C 279.118 271.040,277.589 272.624,275.768 274.551 M193.666 274.269 C 193.983 274.330,194.501 274.330,194.818 274.269 C 195.134 274.208,194.875 274.158,194.242 274.158 C 193.608 274.158,193.349 274.208,193.666 274.269 M35.573 276.994 C 35.573 277.273,37.611 281.254,37.754 281.254 C 37.868 281.254,35.911 277.185,35.671 276.925 C 35.617 276.866,35.573 276.897,35.573 276.994 M254.639 279.718 C 253.301 280.408,252.296 280.978,252.404 280.985 C 252.676 281.003,257.198 278.720,257.198 278.564 C 257.198 278.390,257.330 278.331,254.639 279.718 M283.550 280.422 L 281.894 282.150 283.621 280.494 C 285.226 278.955,285.466 278.695,285.277 278.695 C 285.238 278.695,284.461 279.472,283.550 280.422 M258.221 287.140 C 256.603 287.970,255.367 288.655,255.475 288.662 C 255.746 288.681,261.292 285.886,261.292 285.730 C 261.292 285.556,261.473 285.473,258.221 287.140 M224.440 288.420 C 223.761 288.563,223.699 288.613,224.184 288.627 C 224.536 288.638,225.285 288.551,225.848 288.434 C 226.701 288.258,226.744 288.223,226.104 288.227 C 225.681 288.229,224.933 288.316,224.440 288.420 M218.170 289.215 C 215.168 289.603,214.960 289.654,216.891 289.534 C 219.422 289.376,224.082 288.740,222.649 288.748 C 222.156 288.750,220.141 288.961,218.170 289.215 M252.148 289.775 C 250.708 290.348,249.574 290.862,249.628 290.916 C 249.743 291.031,255.150 288.944,255.150 288.784 C 255.150 288.600,254.850 288.699,252.148 289.775 M209.341 289.955 L 207.166 290.116 209.085 290.132 C 210.141 290.140,211.811 290.065,212.796 289.964 L 214.587 289.780 213.052 289.787 C 212.207 289.791,210.537 289.867,209.341 289.955 M194.306 290.403 C 196.663 290.445,200.521 290.445,202.879 290.403 C 205.237 290.360,203.308 290.326,198.592 290.326 C 193.877 290.326,191.948 290.360,194.306 290.403 M189.956 291.619 C 189.959 292.182,190.011 292.382,190.072 292.064 C 190.133 291.745,190.131 291.285,190.067 291.040 C 190.003 290.795,189.953 291.056,189.956 291.619 M296.732 293.602 L 294.434 295.969 296.801 293.671 C 299.000 291.537,299.285 291.235,299.099 291.235 C 299.061 291.235,297.996 292.300,296.732 293.602 M189.700 295.202 C 189.703 295.765,189.755 295.965,189.816 295.646 C 189.878 295.328,189.875 294.867,189.811 294.623 C 189.747 294.378,189.697 294.639,189.700 295.202 M190.339 298.581 C 190.656 298.642,191.174 298.642,191.491 298.581 C 191.807 298.520,191.548 298.470,190.915 298.470 C 190.282 298.470,190.022 298.520,190.339 298.581 M205.054 298.584 C 205.441 298.642,206.075 298.642,206.462 298.584 C 206.849 298.525,206.532 298.477,205.758 298.477 C 204.984 298.477,204.667 298.525,205.054 298.584 M315.147 306.910 L 314.395 307.742 315.227 306.990 C 316.002 306.289,316.176 306.078,315.979 306.078 C 315.935 306.078,315.560 306.452,315.147 306.910 M197.252 308.050 C 197.570 308.112,198.031 308.109,198.276 308.045 C 198.520 307.981,198.260 307.931,197.697 307.934 C 197.134 307.937,196.934 307.989,197.252 308.050 M80.102 309.277 C 80.580 309.770,81.028 310.173,81.098 310.173 C 81.169 310.173,80.836 309.770,80.358 309.277 C 79.881 308.784,79.433 308.381,79.362 308.381 C 79.292 308.381,79.625 308.784,80.102 309.277 M84.581 314.012 C 85.700 315.138,86.674 316.059,86.744 316.059 C 86.815 316.059,85.956 315.138,84.837 314.012 C 83.717 312.885,82.744 311.964,82.674 311.964 C 82.603 311.964,83.461 312.885,84.581 314.012 M307.600 314.459 L 306.718 315.419 307.678 314.537 C 308.205 314.052,308.637 313.620,308.637 313.577 C 308.637 313.382,308.421 313.566,307.600 314.459 M331.270 316.891 L 330.518 317.722 331.350 316.971 C 332.125 316.270,332.299 316.059,332.102 316.059 C 332.058 316.059,331.683 316.433,331.270 316.891 M187.665 317.850 C 187.665 318.624,187.713 318.941,187.771 318.554 C 187.830 318.167,187.830 317.534,187.771 317.147 C 187.713 316.759,187.665 317.076,187.665 317.850 M89.315 318.490 C 89.793 318.983,90.241 319.386,90.312 319.386 C 90.382 319.386,90.049 318.983,89.571 318.490 C 89.094 317.997,88.646 317.594,88.575 317.594 C 88.505 317.594,88.838 317.997,89.315 318.490 M327.951 320.473 L 326.424 322.073 328.023 320.545 C 329.509 319.127,329.740 318.874,329.551 318.874 C 329.511 318.874,328.791 319.594,327.951 320.473 M66.539 322.073 C 67.016 322.566,67.464 322.969,67.535 322.969 C 67.605 322.969,67.272 322.566,66.795 322.073 C 66.317 321.580,65.869 321.177,65.799 321.177 C 65.728 321.177,66.061 321.580,66.539 322.073 M164.249 323.160 C 165.699 323.205,168.003 323.205,169.367 323.159 C 170.732 323.113,169.546 323.076,166.731 323.076 C 163.916 323.076,162.799 323.114,164.249 323.160 M206.098 327.959 C 206.099 328.944,206.145 329.316,206.201 328.785 C 206.256 328.254,206.255 327.448,206.199 326.994 C 206.142 326.539,206.097 326.974,206.098 327.959 M187.411 327.959 C 187.413 328.804,187.461 329.118,187.518 328.658 C 187.574 328.198,187.573 327.507,187.515 327.123 C 187.457 326.738,187.410 327.115,187.411 327.959 M320.401 328.023 L 319.002 329.495 320.473 328.096 C 321.283 327.326,321.945 326.664,321.945 326.624 C 321.945 326.434,321.700 326.656,320.401 328.023 M76.520 332.054 C 76.997 332.546,77.445 332.949,77.516 332.949 C 77.586 332.949,77.253 332.546,76.775 332.054 C 76.298 331.561,75.850 331.158,75.779 331.158 C 75.709 331.158,76.042 331.561,76.520 332.054 M205.840 338.068 C 205.840 338.983,205.887 339.357,205.943 338.900 C 206.000 338.442,206.000 337.694,205.943 337.236 C 205.887 336.779,205.840 337.153,205.840 338.068 M187.153 338.324 C 187.153 339.098,187.201 339.415,187.259 339.028 C 187.318 338.640,187.318 338.007,187.259 337.620 C 187.201 337.233,187.153 337.550,187.153 338.324 M205.582 348.177 C 205.583 349.021,205.631 349.336,205.688 348.876 C 205.745 348.416,205.743 347.725,205.685 347.340 C 205.627 346.956,205.580 347.332,205.582 348.177 M186.897 348.305 C 186.897 349.079,186.945 349.395,187.004 349.008 C 187.062 348.621,187.062 347.988,187.004 347.601 C 186.945 347.214,186.897 347.530,186.897 348.305 M207.869 355.647 C 208.116 355.711,208.519 355.711,208.765 355.647 C 209.012 355.582,208.810 355.530,208.317 355.530 C 207.825 355.530,207.623 355.582,207.869 355.647 M171.836 364.811 C 171.836 369.738,171.871 371.717,171.913 369.209 C 171.955 366.702,171.955 362.671,171.913 360.252 C 171.870 357.833,171.836 359.885,171.836 364.811 M186.641 358.285 C 186.641 359.060,186.689 359.376,186.748 358.989 C 186.806 358.602,186.806 357.969,186.748 357.582 C 186.689 357.194,186.641 357.511,186.641 358.285 M186.385 368.266 C 186.385 369.040,186.433 369.357,186.492 368.970 C 186.550 368.583,186.550 367.949,186.492 367.562 C 186.433 367.175,186.385 367.492,186.385 368.266 M206.977 374.333 C 207.295 374.394,207.756 374.392,208.000 374.328 C 208.245 374.264,207.985 374.214,207.422 374.217 C 206.859 374.220,206.658 374.272,206.977 374.333 M168.586 374.596 C 169.184 374.649,170.163 374.649,170.761 374.596 C 171.360 374.542,170.870 374.498,169.674 374.498 C 168.477 374.498,167.988 374.542,168.586 374.596 M190.355 374.600 C 192.651 374.642,196.337 374.642,198.545 374.600 C 200.753 374.557,198.874 374.522,194.370 374.522 C 189.866 374.522,188.059 374.557,190.355 374.600 " stroke="none" fill="#b5cb9e" fill-rule="evenodd"></path><path id="path4" d="M227.098 30.823 C 227.020 31.026,227.010 31.400,227.076 31.655 C 227.157 31.967,227.206 31.895,227.226 31.435 C 227.242 31.060,227.399 30.695,227.575 30.624 C 227.826 30.523,227.824 30.490,227.567 30.474 C 227.387 30.463,227.176 30.620,227.098 30.823 M257.947 37.893 C 259.133 38.303,260.148 38.594,260.202 38.540 C 260.318 38.423,256.420 37.099,256.045 37.127 C 255.905 37.138,256.761 37.482,257.947 37.893 M137.044 38.644 C 136.722 38.782,136.674 38.864,136.916 38.864 C 137.127 38.864,137.530 38.765,137.812 38.644 C 138.135 38.505,138.182 38.424,137.940 38.424 C 137.729 38.424,137.326 38.523,137.044 38.644 M185.861 47.784 C 186.248 47.843,186.881 47.843,187.268 47.784 C 187.655 47.725,187.338 47.677,186.564 47.677 C 185.790 47.677,185.473 47.725,185.861 47.784 M182.917 48.037 C 183.234 48.098,183.752 48.098,184.069 48.037 C 184.386 47.976,184.127 47.926,183.493 47.926 C 182.860 47.926,182.601 47.976,182.917 48.037 M180.358 48.293 C 180.675 48.354,181.193 48.354,181.510 48.293 C 181.827 48.232,181.567 48.182,180.934 48.182 C 180.301 48.182,180.042 48.232,180.358 48.293 M220.409 48.289 C 220.656 48.353,221.059 48.353,221.305 48.289 C 221.552 48.225,221.350 48.172,220.857 48.172 C 220.365 48.172,220.163 48.225,220.409 48.289 M178.183 48.545 C 178.429 48.609,178.832 48.609,179.079 48.545 C 179.325 48.481,179.123 48.428,178.631 48.428 C 178.138 48.428,177.937 48.481,178.183 48.545 M222.457 48.545 C 222.703 48.609,223.106 48.609,223.353 48.545 C 223.599 48.481,223.397 48.428,222.905 48.428 C 222.412 48.428,222.210 48.481,222.457 48.545 M176.136 48.801 C 176.382 48.865,176.785 48.865,177.031 48.801 C 177.278 48.736,177.076 48.684,176.583 48.684 C 176.091 48.684,175.889 48.736,176.136 48.801 M224.248 48.801 C 224.495 48.865,224.898 48.865,225.144 48.801 C 225.390 48.736,225.189 48.684,224.696 48.684 C 224.203 48.684,224.002 48.736,224.248 48.801 M174.088 49.057 C 174.335 49.121,174.738 49.121,174.984 49.057 C 175.230 48.992,175.029 48.940,174.536 48.940 C 174.044 48.940,173.842 48.992,174.088 49.057 M267.946 61.548 C 268.298 61.749,268.701 61.914,268.842 61.914 C 268.983 61.914,268.810 61.749,268.458 61.548 C 268.106 61.347,267.703 61.183,267.562 61.183 C 267.422 61.183,267.594 61.347,267.946 61.548 M271.806 63.308 C 272.068 63.545,274.088 64.488,274.088 64.374 C 274.088 64.228,272.157 63.212,271.881 63.212 C 271.781 63.212,271.748 63.255,271.806 63.308 M322.073 75.752 C 322.766 76.456,323.391 77.031,323.461 77.031 C 323.532 77.031,323.022 76.456,322.329 75.752 C 321.636 75.048,321.011 74.472,320.941 74.472 C 320.870 74.472,321.380 75.048,322.073 75.752 M69.726 77.607 L 68.714 78.695 69.802 77.683 C 70.813 76.742,71.007 76.520,70.813 76.520 C 70.771 76.520,70.282 77.009,69.726 77.607 M327.063 80.486 C 328.254 81.683,329.285 82.662,329.355 82.662 C 329.426 82.662,328.509 81.683,327.319 80.486 C 326.129 79.290,325.098 78.311,325.027 78.311 C 324.957 78.311,325.873 79.290,327.063 80.486 M181.382 79.523 C 182.121 79.575,183.330 79.575,184.069 79.523 C 184.808 79.472,184.203 79.429,182.726 79.429 C 181.248 79.429,180.643 79.472,181.382 79.523 M194.314 79.523 C 194.986 79.576,196.023 79.575,196.617 79.522 C 197.211 79.468,196.660 79.425,195.393 79.425 C 194.127 79.426,193.641 79.470,194.314 79.523 M176.775 79.776 C 177.233 79.832,177.981 79.832,178.439 79.776 C 178.896 79.719,178.522 79.672,177.607 79.672 C 176.692 79.672,176.318 79.719,176.775 79.776 M198.916 79.774 C 199.305 79.833,199.881 79.831,200.195 79.771 C 200.510 79.710,200.192 79.662,199.488 79.664 C 198.784 79.666,198.527 79.715,198.916 79.774 M173.836 80.030 C 174.225 80.089,174.801 80.087,175.115 80.027 C 175.430 79.966,175.112 79.918,174.408 79.920 C 173.704 79.922,173.447 79.971,173.836 80.030 M201.987 80.030 C 202.376 80.089,202.952 80.087,203.266 80.027 C 203.581 79.966,203.263 79.918,202.559 79.920 C 201.855 79.922,201.598 79.971,201.987 80.030 M171.148 80.283 C 171.467 80.345,171.927 80.342,172.172 80.278 C 172.417 80.214,172.156 80.164,171.593 80.167 C 171.030 80.170,170.830 80.222,171.148 80.283 M204.929 80.283 C 205.248 80.345,205.708 80.342,205.953 80.278 C 206.198 80.214,205.937 80.164,205.374 80.167 C 204.811 80.170,204.611 80.222,204.929 80.283 M168.845 80.539 C 169.163 80.601,169.624 80.598,169.869 80.534 C 170.113 80.470,169.853 80.420,169.290 80.423 C 168.727 80.426,168.527 80.478,168.845 80.539 M166.667 80.791 C 166.913 80.855,167.316 80.855,167.562 80.791 C 167.809 80.726,167.607 80.674,167.115 80.674 C 166.622 80.674,166.420 80.726,166.667 80.791 M331.798 85.477 C 332.348 86.040,332.855 86.500,332.925 86.500 C 332.996 86.500,332.604 86.040,332.054 85.477 C 331.504 84.914,330.997 84.453,330.926 84.453 C 330.856 84.453,331.248 84.914,331.798 85.477 M308.637 88.420 C 309.115 88.912,309.563 89.315,309.633 89.315 C 309.704 89.315,309.371 88.912,308.893 88.420 C 308.416 87.927,307.967 87.524,307.897 87.524 C 307.827 87.524,308.160 87.927,308.637 88.420 M83.416 90.019 L 82.534 90.979 83.493 90.097 C 84.387 89.276,84.571 89.060,84.375 89.060 C 84.332 89.060,83.901 89.491,83.416 90.019 M313.495 92.962 C 314.971 94.475,316.209 95.713,316.246 95.713 C 316.431 95.713,316.119 95.385,313.564 92.894 L 310.813 90.211 313.495 92.962 M79.073 94.114 L 76.903 96.353 79.143 94.184 C 81.222 92.168,81.499 91.875,81.312 91.875 C 81.274 91.875,80.266 92.882,79.073 94.114 M143.490 104.717 C 142.672 105.002,142.047 105.280,142.102 105.335 C 142.157 105.390,142.999 105.156,143.973 104.816 C 144.948 104.475,145.573 104.197,145.361 104.198 C 145.150 104.199,144.308 104.432,143.490 104.717 M172.617 105.212 C 140.121 108.271,117.910 121.477,103.661 146.213 C 92.062 166.348,93.256 195.318,106.416 213.021 C 114.098 223.355,129.628 233.392,145.489 238.274 C 156.756 241.742,172.874 245.163,177.966 245.168 L 179.476 245.170 179.311 242.674 C 179.220 241.302,179.145 239.632,179.144 238.964 L 179.143 237.748 178.256 237.748 C 169.537 237.748,145.560 231.188,135.253 225.983 C 116.401 216.462,107.580 206.061,104.558 189.790 C 100.910 170.145,104.539 155.902,117.358 139.556 C 129.717 123.796,148.409 114.959,174.216 112.675 L 179.143 112.240 179.143 108.583 L 179.143 104.926 177.031 104.961 C 175.870 104.980,173.884 105.093,172.617 105.212 M100.180 108.829 L 99.168 109.917 100.256 108.905 C 101.267 107.964,101.461 107.742,101.268 107.742 C 101.226 107.742,100.736 108.231,100.180 108.829 M94.290 114.715 L 93.538 115.547 94.370 114.795 C 95.145 114.095,95.319 113.884,95.121 113.884 C 95.077 113.884,94.703 114.258,94.290 114.715 M38.516 117.722 C 38.297 118.145,38.176 118.490,38.247 118.490 C 38.317 118.490,38.553 118.145,38.772 117.722 C 38.990 117.300,39.111 116.955,39.041 116.955 C 38.970 116.955,38.734 117.300,38.516 117.722 M110.163 124.696 L 108.893 126.040 110.237 124.770 C 110.976 124.071,111.580 123.467,111.580 123.426 C 111.580 123.235,111.343 123.448,110.163 124.696 M107.342 127.767 L 106.590 128.599 107.422 127.847 C 108.197 127.147,108.371 126.935,108.173 126.935 C 108.129 126.935,107.755 127.310,107.342 127.767 M360.351 127.831 C 360.351 127.972,360.515 128.375,360.717 128.727 C 360.918 129.079,361.082 129.251,361.082 129.111 C 361.082 128.970,360.918 128.567,360.717 128.215 C 360.515 127.863,360.351 127.690,360.351 127.831 M50.457 135.008 C 50.029 135.949,50.110 136.150,50.574 135.294 C 50.791 134.895,50.920 134.520,50.861 134.461 C 50.803 134.403,50.621 134.649,50.457 135.008 M350.391 152.783 C 350.391 152.994,350.546 153.570,350.736 154.063 C 350.925 154.555,351.081 154.786,351.081 154.575 C 351.081 154.363,350.925 153.788,350.736 153.295 C 350.546 152.802,350.391 152.572,350.391 152.783 M92.277 155.489 C 92.183 155.864,92.155 156.220,92.215 156.280 C 92.276 156.340,92.402 156.083,92.496 155.708 C 92.590 155.333,92.618 154.977,92.558 154.916 C 92.497 154.856,92.371 155.113,92.277 155.489 M70.703 171.721 C 70.703 172.354,70.753 172.614,70.814 172.297 C 70.875 171.980,70.875 171.462,70.814 171.145 C 70.753 170.829,70.703 171.088,70.703 171.721 M70.457 175.176 C 70.458 176.020,70.506 176.335,70.563 175.875 C 70.620 175.415,70.619 174.724,70.560 174.340 C 70.502 173.955,70.455 174.331,70.457 175.176 M374.468 176.328 C 374.468 176.820,374.520 177.022,374.585 176.775 C 374.649 176.529,374.649 176.126,374.585 175.880 C 374.520 175.633,374.468 175.835,374.468 176.328 M374.729 178.503 C 374.731 179.066,374.784 179.266,374.845 178.948 C 374.906 178.629,374.904 178.169,374.840 177.924 C 374.776 177.679,374.726 177.940,374.729 178.503 M70.223 181.958 C 70.223 183.999,70.263 184.834,70.312 183.813 C 70.360 182.793,70.360 181.123,70.312 180.102 C 70.263 179.082,70.223 179.917,70.223 181.958 M37.940 180.294 C 37.943 180.857,37.996 181.058,38.057 180.739 C 38.118 180.421,38.116 179.960,38.052 179.716 C 37.988 179.471,37.938 179.731,37.940 180.294 M37.684 182.598 C 37.687 183.161,37.740 183.361,37.801 183.042 C 37.862 182.724,37.860 182.263,37.796 182.019 C 37.732 181.774,37.682 182.035,37.684 182.598 M37.434 185.029 C 37.434 185.662,37.484 185.921,37.545 185.605 C 37.606 185.288,37.606 184.770,37.545 184.453 C 37.484 184.136,37.434 184.395,37.434 185.029 M70.454 188.356 C 70.454 189.130,70.502 189.447,70.561 189.060 C 70.619 188.672,70.619 188.039,70.561 187.652 C 70.502 187.265,70.454 187.582,70.454 188.356 M70.693 191.427 C 70.693 191.919,70.745 192.121,70.810 191.875 C 70.874 191.628,70.874 191.225,70.810 190.979 C 70.745 190.733,70.693 190.934,70.693 191.427 M210.439 192.640 C 211.395 192.690,212.892 192.689,213.766 192.640 C 214.640 192.590,213.858 192.549,212.028 192.550 C 210.198 192.550,209.483 192.591,210.439 192.640 M201.855 192.895 C 202.594 192.947,203.804 192.947,204.543 192.895 C 205.282 192.843,204.677 192.801,203.199 192.801 C 201.721 192.801,201.116 192.843,201.855 192.895 M219.907 192.896 C 220.721 192.947,221.988 192.946,222.722 192.895 C 223.456 192.843,222.790 192.801,221.241 192.802 C 219.693 192.803,219.092 192.845,219.907 192.896 M197.249 193.147 C 197.706 193.204,198.455 193.204,198.912 193.147 C 199.370 193.091,198.996 193.044,198.081 193.044 C 197.166 193.044,196.791 193.091,197.249 193.147 M225.906 193.147 C 226.360 193.203,227.166 193.204,227.697 193.149 C 228.228 193.094,227.857 193.047,226.871 193.046 C 225.886 193.045,225.452 193.090,225.906 193.147 M194.053 193.402 C 194.442 193.461,195.018 193.459,195.333 193.398 C 195.648 193.338,195.329 193.289,194.626 193.291 C 193.922 193.293,193.664 193.343,194.053 193.402 M230.134 193.401 C 230.521 193.460,231.155 193.460,231.542 193.401 C 231.929 193.343,231.612 193.295,230.838 193.295 C 230.064 193.295,229.747 193.343,230.134 193.401 M190.982 193.658 C 191.371 193.717,191.947 193.715,192.262 193.654 C 192.577 193.593,192.258 193.545,191.555 193.547 C 190.851 193.549,190.593 193.599,190.982 193.658 M233.333 193.655 C 233.650 193.716,234.168 193.716,234.485 193.655 C 234.802 193.594,234.543 193.544,233.909 193.544 C 233.276 193.544,233.017 193.594,233.333 193.655 M188.295 193.911 C 188.613 193.972,189.074 193.970,189.318 193.906 C 189.563 193.842,189.303 193.792,188.740 193.795 C 188.177 193.797,187.976 193.850,188.295 193.911 M236.151 193.911 C 236.470 193.972,236.930 193.970,237.175 193.906 C 237.420 193.842,237.159 193.792,236.596 193.795 C 236.033 193.797,235.833 193.850,236.151 193.911 M238.455 194.167 C 238.773 194.228,239.234 194.226,239.478 194.162 C 239.723 194.098,239.463 194.048,238.900 194.050 C 238.337 194.053,238.136 194.106,238.455 194.167 M94.434 208.927 C 94.434 209.202,95.195 210.621,95.343 210.621 C 95.413 210.621,95.280 210.246,95.048 209.789 C 94.573 208.855,94.434 208.660,94.434 208.927 M211.580 211.057 C 211.897 211.118,212.415 211.118,212.732 211.057 C 213.049 210.996,212.790 210.946,212.156 210.946 C 211.523 210.946,211.264 210.996,211.580 211.057 M212.327 228.691 C 212.233 234.306,212.157 240.541,212.156 242.546 L 212.156 246.193 216.082 246.193 L 220.008 246.193 220.177 241.162 C 220.270 238.394,220.345 234.058,220.345 231.525 L 220.345 226.921 223.389 227.084 C 249.941 228.512,269.800 235.274,275.994 244.998 C 283.174 256.267,270.941 273.691,250.032 281.973 C 235.954 287.550,220.901 290.100,200.347 290.389 L 190.201 290.532 190.050 292.355 C 189.967 293.358,189.826 295.116,189.736 296.263 L 189.574 298.348 192.100 298.540 C 206.165 299.607,230.293 296.789,244.786 292.387 C 266.878 285.676,282.898 271.802,285.718 256.939 C 289.975 234.498,264.784 220.438,217.125 218.656 L 212.496 218.483 212.327 228.691 M37.600 220.026 C 37.722 220.909,37.740 220.927,37.824 220.250 C 37.875 219.846,37.815 219.414,37.691 219.291 C 37.563 219.162,37.524 219.476,37.600 220.026 M102.623 221.449 C 102.623 221.493,102.997 221.868,103.455 222.281 L 104.287 223.033 103.535 222.201 C 102.834 221.426,102.623 221.252,102.623 221.449 M20.670 225.649 C 21.130 225.706,21.821 225.705,22.205 225.647 C 22.590 225.588,22.214 225.542,21.369 225.543 C 20.525 225.545,20.210 225.592,20.670 225.649 M371.022 225.649 C 371.482 225.706,372.173 225.705,372.557 225.647 C 372.942 225.588,372.566 225.542,371.721 225.543 C 370.877 225.545,370.562 225.592,371.022 225.649 M107.742 226.568 C 107.742 226.612,108.116 226.986,108.573 227.399 L 109.405 228.151 108.653 227.319 C 107.953 226.544,107.742 226.370,107.742 226.568 M285.861 230.150 C 285.861 230.194,286.235 230.569,286.692 230.982 L 287.524 231.734 286.772 230.902 C 286.072 230.127,285.861 229.953,285.861 230.150 M90.339 235.317 C 90.817 235.809,91.265 236.212,91.335 236.212 C 91.406 236.212,91.072 235.809,90.595 235.317 C 90.118 234.824,89.669 234.421,89.599 234.421 C 89.529 234.421,89.862 234.824,90.339 235.317 M95.074 240.051 C 95.623 240.614,96.131 241.075,96.201 241.075 C 96.272 241.075,95.879 240.614,95.329 240.051 C 94.780 239.488,94.272 239.028,94.202 239.028 C 94.132 239.028,94.524 239.488,95.074 240.051 M294.877 247.473 C 294.877 247.965,294.930 248.167,294.994 247.921 C 295.058 247.674,295.058 247.271,294.994 247.025 C 294.930 246.779,294.877 246.980,294.877 247.473 M295.150 250.032 C 295.150 250.806,295.198 251.123,295.257 250.736 C 295.316 250.349,295.316 249.715,295.257 249.328 C 295.198 248.941,295.150 249.258,295.150 250.032 M152.143 249.264 C 152.425 249.385,152.828 249.484,153.039 249.484 C 153.281 249.484,153.234 249.403,152.911 249.264 C 152.630 249.143,152.226 249.044,152.015 249.044 C 151.773 249.044,151.821 249.126,152.143 249.264 M295.155 255.918 C 295.155 256.833,295.202 257.207,295.259 256.750 C 295.315 256.292,295.315 255.544,295.259 255.086 C 295.202 254.629,295.155 255.003,295.155 255.918 M50.178 264.491 C 50.178 264.632,50.343 265.035,50.544 265.387 C 50.745 265.739,50.910 265.912,50.910 265.771 C 50.910 265.630,50.745 265.227,50.544 264.875 C 50.343 264.523,50.178 264.351,50.178 264.491 M51.951 268.294 C 51.951 268.572,53.734 272.041,53.877 272.041 C 53.948 272.041,53.587 271.206,53.076 270.186 C 52.118 268.271,51.951 267.991,51.951 268.294 M172.809 272.217 C 173.055 272.282,173.458 272.282,173.704 272.217 C 173.951 272.153,173.749 272.100,173.257 272.100 C 172.764 272.100,172.562 272.153,172.809 272.217 M176.647 272.729 C 176.894 272.794,177.297 272.794,177.543 272.729 C 177.790 272.665,177.588 272.612,177.095 272.612 C 176.603 272.612,176.401 272.665,176.647 272.729 M178.951 272.985 C 179.197 273.049,179.600 273.049,179.846 272.985 C 180.093 272.921,179.891 272.868,179.399 272.868 C 178.906 272.868,178.704 272.921,178.951 272.985 M181.126 273.245 C 181.443 273.306,181.961 273.306,182.278 273.245 C 182.594 273.184,182.335 273.134,181.702 273.134 C 181.068 273.134,180.809 273.184,181.126 273.245 M183.817 273.504 C 184.206 273.563,184.782 273.561,185.096 273.501 C 185.411 273.440,185.093 273.392,184.389 273.394 C 183.685 273.396,183.428 273.445,183.817 273.504 M186.884 273.760 C 187.271 273.818,187.905 273.818,188.292 273.760 C 188.679 273.701,188.362 273.653,187.588 273.653 C 186.814 273.653,186.497 273.701,186.884 273.760 M190.858 274.020 C 191.460 274.074,192.381 274.073,192.905 274.018 C 193.429 273.963,192.937 273.919,191.811 273.920 C 190.685 273.921,190.256 273.966,190.858 274.020 M197.874 274.279 C 199.380 274.324,201.913 274.324,203.505 274.279 C 205.096 274.234,203.864 274.198,200.768 274.197 C 197.671 274.197,196.369 274.234,197.874 274.279 M281.110 282.853 L 280.358 283.685 281.190 282.934 C 281.965 282.233,282.139 282.022,281.942 282.022 C 281.898 282.022,281.523 282.396,281.110 282.853 M266.667 292.258 C 265.611 292.808,264.837 293.263,264.946 293.269 C 265.218 293.287,268.714 291.515,268.714 291.360 C 268.714 291.187,268.798 291.150,266.667 292.258 M316.813 305.246 L 315.931 306.206 316.891 305.324 C 317.418 304.839,317.850 304.407,317.850 304.364 C 317.850 304.169,317.634 304.353,316.813 305.246 M217.850 306.254 C 218.097 306.319,218.500 306.319,218.746 306.254 C 218.992 306.190,218.791 306.137,218.298 306.137 C 217.806 306.137,217.604 306.190,217.850 306.254 M216.059 306.510 C 216.305 306.575,216.708 306.575,216.955 306.510 C 217.201 306.446,216.999 306.393,216.507 306.393 C 216.014 306.393,215.813 306.446,216.059 306.510 M78.311 307.486 C 78.788 307.978,79.237 308.381,79.307 308.381 C 79.377 308.381,79.044 307.978,78.567 307.486 C 78.089 306.993,77.641 306.590,77.571 306.590 C 77.500 306.590,77.833 306.993,78.311 307.486 M214.012 306.766 C 214.258 306.831,214.661 306.831,214.907 306.766 C 215.154 306.702,214.952 306.649,214.459 306.649 C 213.967 306.649,213.765 306.702,214.012 306.766 M211.839 307.027 C 212.158 307.088,212.618 307.086,212.863 307.022 C 213.108 306.958,212.847 306.908,212.284 306.910 C 211.721 306.913,211.521 306.966,211.839 307.027 M209.405 307.278 C 209.651 307.343,210.054 307.343,210.301 307.278 C 210.547 307.214,210.345 307.161,209.853 307.161 C 209.360 307.161,209.159 307.214,209.405 307.278 M206.721 307.539 C 207.039 307.600,207.500 307.598,207.745 307.533 C 207.989 307.469,207.729 307.419,207.166 307.422 C 206.603 307.425,206.402 307.477,206.721 307.539 M203.647 307.794 C 203.964 307.855,204.482 307.855,204.798 307.794 C 205.115 307.733,204.856 307.683,204.223 307.683 C 203.589 307.683,203.330 307.733,203.647 307.794 M199.296 308.055 C 199.754 308.111,200.502 308.111,200.960 308.055 C 201.417 307.998,201.043 307.951,200.128 307.951 C 199.213 307.951,198.839 307.998,199.296 308.055 M188.551 308.306 C 188.869 308.368,189.330 308.365,189.574 308.301 C 189.819 308.237,189.559 308.187,188.996 308.190 C 188.433 308.193,188.232 308.245,188.551 308.306 M310.680 311.644 L 307.742 314.651 310.749 311.712 C 313.542 308.983,313.872 308.637,313.687 308.637 C 313.650 308.637,312.297 309.990,310.680 311.644 M187.917 310.301 C 187.919 311.004,187.969 311.262,188.028 310.873 C 188.086 310.484,188.085 309.908,188.024 309.593 C 187.963 309.279,187.915 309.597,187.917 310.301 M81.254 310.685 C 81.947 311.388,82.572 311.964,82.642 311.964 C 82.713 311.964,82.203 311.388,81.510 310.685 C 80.817 309.981,80.192 309.405,80.122 309.405 C 80.051 309.405,80.561 309.981,81.254 310.685 M257.070 316.059 C 255.944 316.459,255.146 316.796,255.297 316.807 C 255.615 316.830,259.264 315.614,259.457 315.420 C 259.702 315.175,259.110 315.334,257.070 316.059 M305.682 316.379 L 304.671 317.466 305.758 316.455 C 306.770 315.514,306.963 315.291,306.770 315.291 C 306.728 315.291,306.239 315.781,305.682 316.379 M87.908 317.338 C 88.601 318.042,89.226 318.618,89.296 318.618 C 89.367 318.618,88.857 318.042,88.164 317.338 C 87.471 316.635,86.846 316.059,86.775 316.059 C 86.705 316.059,87.215 316.635,87.908 317.338 M329.734 318.426 L 328.983 319.258 329.814 318.506 C 330.590 317.806,330.764 317.594,330.566 317.594 C 330.522 317.594,330.148 317.969,329.734 318.426 M187.661 320.282 C 187.663 320.985,187.713 321.243,187.772 320.854 C 187.830 320.465,187.829 319.889,187.768 319.574 C 187.707 319.259,187.659 319.578,187.661 320.282 M91.107 320.282 C 91.584 320.774,92.033 321.177,92.103 321.177 C 92.173 321.177,91.840 320.774,91.363 320.282 C 90.885 319.789,90.437 319.386,90.367 319.386 C 90.296 319.386,90.629 319.789,91.107 320.282 M65.643 320.921 C 66.193 321.484,66.700 321.945,66.771 321.945 C 66.841 321.945,66.449 321.484,65.899 320.921 C 65.349 320.358,64.842 319.898,64.771 319.898 C 64.701 319.898,65.093 320.358,65.643 320.921 M324.115 324.312 L 321.817 326.679 324.184 324.382 C 326.383 322.247,326.668 321.945,326.482 321.945 C 326.444 321.945,325.379 323.010,324.115 324.312 M71.529 327.063 C 73.778 329.315,75.675 331.158,75.746 331.158 C 75.816 331.158,74.034 329.315,71.785 327.063 C 69.536 324.811,67.639 322.969,67.568 322.969 C 67.498 322.969,69.280 324.811,71.529 327.063 M318.860 329.303 L 317.978 330.262 318.938 329.380 C 319.466 328.895,319.898 328.463,319.898 328.421 C 319.898 328.225,319.681 328.409,318.860 329.303 M205.861 332.694 C 205.861 334.875,205.900 335.768,205.948 334.677 C 205.996 333.586,205.996 331.801,205.948 330.710 C 205.900 329.619,205.861 330.512,205.861 332.694 M187.402 330.390 C 187.402 331.024,187.452 331.283,187.513 330.966 C 187.574 330.649,187.574 330.131,187.513 329.814 C 187.452 329.498,187.402 329.757,187.402 330.390 M77.671 332.949 C 78.221 333.512,78.728 333.973,78.799 333.973 C 78.869 333.973,78.477 333.512,77.927 332.949 C 77.377 332.386,76.870 331.926,76.800 331.926 C 76.729 331.926,77.121 332.386,77.671 332.949 M79.591 334.565 C 79.591 334.609,79.965 334.983,80.422 335.397 L 81.254 336.148 80.502 335.317 C 79.802 334.541,79.591 334.367,79.591 334.565 M205.606 342.802 C 205.606 345.054,205.645 345.941,205.693 344.774 C 205.740 343.606,205.740 341.763,205.692 340.679 C 205.644 339.595,205.606 340.550,205.606 342.802 M187.141 340.499 C 187.144 341.062,187.196 341.262,187.257 340.944 C 187.318 340.626,187.316 340.165,187.252 339.920 C 187.188 339.676,187.138 339.936,187.141 340.499 M205.362 352.506 C 205.372 355.220,205.443 355.831,205.758 355.917 C 206.034 355.992,206.054 355.959,205.830 355.800 C 205.623 355.652,205.491 354.516,205.434 352.389 L 205.349 349.200 205.362 352.506 M186.885 350.480 C 186.888 351.043,186.940 351.243,187.001 350.925 C 187.062 350.606,187.060 350.146,186.996 349.901 C 186.932 349.656,186.882 349.917,186.885 350.480 M274.088 358.413 C 273.736 358.614,273.564 358.779,273.704 358.779 C 273.845 358.779,274.248 358.614,274.600 358.413 C 274.952 358.212,275.125 358.048,274.984 358.048 C 274.843 358.048,274.440 358.212,274.088 358.413 M186.629 360.461 C 186.632 361.024,186.684 361.224,186.745 360.906 C 186.807 360.587,186.804 360.127,186.740 359.882 C 186.676 359.637,186.626 359.898,186.629 360.461 M186.378 370.569 C 186.378 371.203,186.428 371.462,186.489 371.145 C 186.550 370.829,186.550 370.310,186.489 369.994 C 186.428 369.677,186.378 369.936,186.378 370.569 M226.040 372.281 C 226.286 372.346,226.689 372.346,226.935 372.281 C 227.182 372.217,226.980 372.164,226.488 372.164 C 225.995 372.164,225.793 372.217,226.040 372.281 M224.248 372.537 C 224.495 372.602,224.898 372.602,225.144 372.537 C 225.390 372.473,225.189 372.420,224.696 372.420 C 224.203 372.420,224.002 372.473,224.248 372.537 M222.457 372.793 C 222.703 372.858,223.106 372.858,223.353 372.793 C 223.599 372.729,223.397 372.676,222.905 372.676 C 222.412 372.676,222.210 372.729,222.457 372.793 M220.284 373.054 C 220.603 373.115,221.063 373.113,221.308 373.049 C 221.553 372.984,221.292 372.934,220.729 372.937 C 220.166 372.940,219.966 372.992,220.284 373.054 M156.174 373.305 C 156.420 373.369,156.823 373.369,157.070 373.305 C 157.316 373.241,157.115 373.188,156.622 373.188 C 156.129 373.188,155.928 373.241,156.174 373.305 M217.981 373.310 C 218.300 373.371,218.760 373.368,219.005 373.304 C 219.250 373.240,218.989 373.190,218.426 373.193 C 217.863 373.196,217.663 373.248,217.981 373.310 M157.965 373.561 C 158.212 373.625,158.615 373.625,158.861 373.561 C 159.107 373.497,158.906 373.444,158.413 373.444 C 157.921 373.444,157.719 373.497,157.965 373.561 M215.419 373.565 C 215.736 373.626,216.254 373.626,216.571 373.565 C 216.887 373.504,216.628 373.454,215.995 373.454 C 215.361 373.454,215.102 373.504,215.419 373.565 M160.013 373.817 C 160.259 373.881,160.662 373.881,160.909 373.817 C 161.155 373.752,160.953 373.700,160.461 373.700 C 159.968 373.700,159.766 373.752,160.013 373.817 M212.220 373.824 C 212.607 373.882,213.241 373.882,213.628 373.824 C 214.015 373.765,213.698 373.717,212.924 373.717 C 212.150 373.717,211.833 373.765,212.220 373.824 M162.444 374.077 C 162.761 374.138,163.279 374.138,163.596 374.077 C 163.912 374.016,163.653 373.966,163.020 373.966 C 162.386 373.966,162.127 374.016,162.444 374.077 M208.509 374.081 C 208.967 374.138,209.715 374.138,210.173 374.081 C 210.630 374.025,210.256 373.978,209.341 373.978 C 208.426 373.978,208.052 374.025,208.509 374.081 M165.643 374.339 C 166.171 374.394,167.035 374.394,167.562 374.339 C 168.090 374.283,167.658 374.238,166.603 374.238 C 165.547 374.238,165.115 374.283,165.643 374.339 M202.623 374.341 C 203.362 374.393,204.571 374.393,205.310 374.341 C 206.049 374.289,205.445 374.247,203.967 374.247 C 202.489 374.247,201.884 374.289,202.623 374.341 " stroke="none" fill="#87b081" fill-rule="evenodd"></path></g></svg>